<?xml version="1.0" encoding="UTF-8" standalone="no"?>
<svg xmlns="http://www.w3.org/2000/svg" viewBox="0 0 159 159">
   <g>
      <path d="m 128.43632,154.42109 c -8.23696,-7.64978 -21.75186,-16.00075 -43.884923,-27.11684 -11.4556,-5.75345 -23.158733,-12.02352 -26.006967,-13.93346 -2.848232,-1.90996 -5.324237,-3.32701 -5.50223,-3.14902 -1.490432,1.49043 7.287784,9.53953 15.295893,14.02542 l 6.803574,3.81115 -10.205359,0.006 c -12.641847,0.008 -21.418761,1.31296 -35.52976,5.28398 -8.954037,2.51993 -26.8125263,6.80866 -28.3509983,6.80866 -0.20635701,0 -0.37519301,-31.50614 -0.37519301,-70.013669 V 0.12969624 l 5.10267801,0.518758 C 8.5895097,0.93377024 14.181502,1.8260193 18.209688,2.6312283 64.366618,11.8577 111.2278,56.052811 142.79047,120.12429 c 6.11121,12.4056 14.2401,31.69751 15.52835,36.85268 l 0.5195,2.07887 -12.74415,-0.0357 -12.74416,-0.0357z" />
   </g>
</svg>