<?xml version="1.0" encoding="UTF-8" standalone="no"?>
<!-- Created with Inkscape (http://www.inkscape.org/) -->

<svg width="1280mm" height="720mm" viewBox="0 0 1280 720.00004" version="1.1" id="svg138"
   xmlns:xlink="http://www.w3.org/1999/xlink" xmlns="http://www.w3.org/2000/svg" xmlns:svg="http://www.w3.org/2000/svg">
   <rect fill="#FAD6B1" id="rect-cab" width="640" height="375" x="0" y="30" />
   <rect fill="#FAD6B1" id="rect-cab-flat" width="640" height="15" x="0" y="405" />
   <rect fill="#FAD6B1" id="rect-cab-top" width="640" height="30" x="0" y="0" />
   <rect fill="#FAD6B1" id="rect-cab-front" width="640" height="30" x="0" y="420" />
   <rect fill="#FAD6B1" id="rect-table-top" width="640" height="90" x="0" y="450" />
   <rect fill="#FAD6B1" id="rect-table-front" width="640" height="180" x="0" y="540" />

   <g id="baku-logo">
      <path id="baku-path"
         d="m 671.98645,191.37241 c -5.41263,-5.02604 -14.29347,-10.51283 -28.83744,-17.81636 -7.52765,-3.78013 -15.21794,-7.89972 -17.08957,-9.15458 -1.87162,-1.25487 -3.49862,-2.1859 -3.61561,-2.06899 -0.97939,0.97926 4.78894,6.2677 10.05118,9.21502 l 4.47074,2.50402 -6.7061,0.005 c -8.30714,0.005 -14.07459,0.86264 -23.34713,3.47168 -5.88385,1.65564 -17.61893,4.47344 -18.62989,4.47344 -0.13552,0 -0.24662,-20.70021 -0.24662,-46.00054 V 90 l 3.35305,0.34081 c 1.84417,0.187456 5.51877,0.773726 8.16573,1.302747 30.33044,6.061995 61.12361,35.099163 81.86393,77.195513 4.01579,8.15078 9.35737,20.82597 10.2039,24.21303 l 0.34137,1.36586 -8.37435,-0.0223 -8.3744,-0.0223 z" />
      <text id="baku-text" x="639.74115" y="191.74371" id="">
         <tspan x="639.74115" y="191.74371">Baku</tspan>
         <tspan x="639.74115" y="204.97284">PublicHouse</tspan>
      </text>
   </g>

</svg>