<?xml version="1.0" encoding="UTF-8" standalone="no"?>
<!-- Created with Inkscape (http://www.inkscape.org/) -->

<svg width="1280mm" height="720mm" viewBox="0 0 1280 720.00004" version="1.1" id="svg138"
   xmlns:xlink="http://www.w3.org/1999/xlink" xmlns="http://www.w3.org/2000/svg" xmlns:svg="http://www.w3.org/2000/svg">
   <rect
      style="display:inline;fill:#000000;fill-opacity:1;stroke:#000000;stroke-width:0.1;stroke-miterlimit:4;stroke-dasharray:none;stroke-opacity:1"
      id="rect8734" width="103" height="103" x="0.00149022" y="0.0229878" />
   <path
      d="M 0.00149022,0.0229878 C 15.7406,1.0454478 30.80611,7.2129348 43.39741,16.585315 c 24.63119,18.24035 42.08157,44.64467 54.16511,72.484 1.67886,4.40472 4.94622,13.903575 4.94622,13.903575 V 0.0229878 Z"
      style="display:inline;fill:#ffffff;stroke:none;stroke-width:0.0459756;stroke-opacity:1;fill-opacity:1"
      id="path8233" inkscape:label="path-top" />
   <path
      d="M 84.898928,102.94984 C 77.447448,95.51643 68.296278,90.17654 58.94585,85.48968 50.62261,81.34265 42.34309,77.02941 34.36431,72.29737 c 1.48892,4.32147 6.5129,6.87947 10.30079,9.35308 0.89857,0.70573 4.53776,2.12567 3.63061,2.36082 C 38.66739,83.79763 28.94885,84.32729 19.69929,87.24612 13.25365,88.99558 6.7853703,90.7248 0.21967024,91.95695 L 0.02340024,103 Z"
      style="display:inline;fill:#ffffff;stroke:none;stroke-width:0.0459756;stroke-opacity:1;fill-opacity:1"
      id="path7578" sodipodi:nodetypes="ccccccccc" inkscape:label="path-bottom" />

</svg>