<?xml version="1.0" encoding="UTF-8" standalone="no"?>
<!-- Created with Inkscape (http://www.inkscape.org/) -->

<svg
   width="103mm"
   height="103mm"
   viewBox="0 0 103 103"
   version="1.1"
   id="svg138"
   inkscape:version="1.1 (c68e22c387, 2021-05-23)"
   sodipodi:docname="mainlogo.svg"
   inkscape:label="scence"
   xmlns:inkscape="http://www.inkscape.org/namespaces/inkscape"
   xmlns:sodipodi="http://sodipodi.sourceforge.net/DTD/sodipodi-0.dtd"
   xmlns="http://www.w3.org/2000/svg"
   xmlns:svg="http://www.w3.org/2000/svg">
  <defs
     id="defs14" />
  <sodipodi:namedview
     id="namedview140"
     pagecolor="#ffffff"
     bordercolor="#666666"
     borderopacity="1.0"
     inkscape:pageshadow="2"
     inkscape:pageopacity="0.0"
     inkscape:pagecheckerboard="0"
     inkscape:document-units="mm"
     showgrid="false"
     units="mm"
     width="103mm"
     inkscape:snap-intersection-paths="false"
     inkscape:snap-grids="false"
     inkscape:object-nodes="false"
     inkscape:snap-nodes="false"
     inkscape:snap-bbox="true"
     inkscape:snap-bbox-midpoints="false"
     inkscape:zoom="1.3154753"
     inkscape:cx="1114.046"
     inkscape:cy="606.24477"
     inkscape:window-width="3840"
     inkscape:window-height="2081"
     inkscape:window-x="-9"
     inkscape:window-y="-9"
     inkscape:window-maximized="1"
     inkscape:current-layer="svg138"
     inkscape:snap-global="true"
     showguides="true"
     inkscape:guide-bbox="true"
     inkscape:snap-others="false"
     inkscape:snap-to-guides="false"
     inkscape:bbox-paths="false"
     inkscape:bbox-nodes="true">
    <inkscape:grid
       type="xygrid"
       id="grid247" />
    <sodipodi:guide
       position="103,617.00002"
       orientation="-1,0"
       id="guide1347"
       inkscape:label=""
       inkscape:locked="false"
       inkscape:color="rgb(0,0,255)" />
    <sodipodi:guide
       position="103,617.00002"
       orientation="0,1"
       id="guide1349"
       inkscape:label=""
       inkscape:locked="false"
       inkscape:color="rgb(0,0,255)" />
  </sodipodi:namedview>
  <path
     d="M 81.737785,100.06931 C 76.325155,95.04327 69.65697,90.85958 55.113,83.55605 47.58535,79.77592 39.89506,75.65633 38.02343,74.40147 c -1.87162,-1.25487 -3.49862,-2.1859 -3.61561,-2.06899 -0.97939,0.97926 4.78894,6.2677 10.05118,9.21502 l 4.47074,2.50402 -6.7061,0.005 C 33.9165,84.06152 28.14905,84.91916 18.87651,87.5282 12.99266,89.18384 1.25758,92.00164 0.24662,92.00164 0.1111,92.00164 0,71.30143 0,46.0011 V 0 L 3.35305,0.34081 C 5.1972204,0.528266 8.8718204,1.114536 11.51878,1.643557 41.84922,7.705552 72.64239,36.74272 93.38271,78.83907 96.772504,85.767977 101.13986,95.557452 103,103 h -9.659 -8.374 z"
     id="path226"
     style="display:inline;stroke-width:0.657069"
     inkscape:label="path-logo"
     sodipodi:nodetypes="csscscccsscccccccc" />
  <rect
     style="fill:#ffffff;fill-opacity:0;stroke:#000000;stroke-width:0.264583;stroke-opacity:1"
     id="rect2425"
     width="103"
     height="103"
     x="-0.1322915"
     y="0.1322915"
     inkscape:label="rect-outer" />
</svg>
